<?xml version="1.0" encoding="UTF-8" standalone="no"?>
<!DOCTYPE svg PUBLIC "-//W3C//DTD SVG 1.1//EN" "http://www.w3.org/Graphics/SVG/1.1/DTD/svg11.dtd">
<svg width="100%" height="100%" viewBox="0 0 229 229" version="1.1" xmlns="http://www.w3.org/2000/svg" xmlns:xlink="http://www.w3.org/1999/xlink" xml:space="preserve" xmlns:serif="http://www.serif.com/" style="fill-rule:evenodd;clip-rule:evenodd;stroke-linejoin:round;stroke-miterlimit:2;">
    <g transform="matrix(1,0,0,1,-742.626,-884.794)">
        <g id="Tape-Square" serif:id="Tape Square" transform="matrix(1,0,0,1,-17.0339,-241.008)">
            <g id="Sonar-Measurements" serif:id="Sonar Measurements" transform="matrix(0.40222,0,0,0.40222,771.211,1137.19)">
                <path id="Shape" d="M431.669,44.226C402.803,17.832 365.55,10.152 327.857,5.297C298.15,1.768 268.26,-0.001 238.345,-0L238.345,0.088C235.432,-0 232.519,-0 229.517,-0C117.407,-0 26.483,43.432 26.483,97.103L26.483,238.345C26.483,258.648 39.459,277.539 61.793,293.076C67.44,297.016 73.337,300.584 79.448,303.757C90.798,309.6 102.607,314.501 114.759,318.411C120.408,320.265 126.323,322.03 132.414,323.619C146.935,327.341 161.677,330.142 176.552,332.006C180.524,332.535 184.585,332.977 188.734,333.418C171.255,346.218 154.836,357.959 140.447,368.199C119.261,383.206 102.4,394.858 92.513,401.655C90.237,403.252 88.845,405.828 88.759,408.607C88.672,411.386 89.899,414.044 92.072,415.779L209.92,510.058C213.055,512.521 217.437,512.629 220.69,510.323C239.757,496.463 258.56,481.927 277.098,466.714C292.988,453.767 308.524,440.349 323.708,426.461C328.121,422.488 332.447,418.516 336.772,414.455C349.131,402.891 361.137,391.091 372.789,379.057C376.938,374.908 381.087,370.582 384.971,366.345C394.24,356.634 403.185,346.806 411.807,336.861C413.837,334.477 415.956,332.094 417.986,329.71C421.87,325.297 425.754,320.706 429.55,316.116C439.763,304.088 449.143,291.376 457.622,278.069C461.153,272.596 464.331,267.034 467.332,261.297C475.122,246.551 480.318,230.576 482.692,214.069C490.461,156.337 476.16,84.833 431.669,44.226Z" style="fill:url(#_Linear1);fill-rule:nonzero;"/>
                <g>
                    <path id="Shape1" serif:id="Shape" d="M228.281,44.138L221.308,141.065C166.577,139.211 123.586,118.29 123.586,92.69C123.586,66.03 170.284,44.491 228.281,44.138Z" style="fill:url(#_Linear2);fill-rule:nonzero;"/>
                    <path id="Shape2" serif:id="Shape" d="M335.36,94.455C335.245,97.481 334.525,100.452 333.241,103.194C326.003,118.378 306.847,126.941 291.84,131.972C289.457,132.767 287.073,133.473 284.601,134.179L289.103,44.844C295.651,47.819 301.94,51.333 307.906,55.349C320,63.559 336.066,78.654 335.36,94.455Z" style="fill:url(#_Linear3);fill-rule:nonzero;"/>
                </g>
                <path id="Shape3" serif:id="Shape" d="M289.103,44.844L284.601,134.179C266.658,139.085 248.118,141.462 229.517,141.241C226.781,141.241 224.044,141.153 221.308,141.065L228.281,44.138C228.585,39.613 230.876,35.455 234.538,32.781C238.2,30.106 242.858,29.19 247.261,30.279C261.643,33.781 275.655,38.658 289.103,44.844Z" style="fill:url(#_Linear4);fill-rule:nonzero;"/>
                <path id="Shape4" serif:id="Shape" d="M420.193,130.472C384.353,184.055 277.981,267.829 194.207,329.357C192.353,330.77 190.588,332.094 188.734,333.418C184.585,332.977 180.524,332.535 176.552,332.006C161.677,330.142 146.935,327.341 132.414,323.619C126.323,322.03 120.408,320.265 114.759,318.411C102.607,314.501 90.798,309.6 79.448,303.757C73.337,300.584 67.44,297.016 61.793,293.076C39.459,277.539 26.483,258.648 26.483,238.345L26.483,97.103C26.483,150.775 117.407,194.207 229.517,194.207C317.087,194.207 391.768,167.724 420.193,130.472Z" style="fill:url(#_Linear5);fill-rule:nonzero;"/>
                <path id="Shape5" serif:id="Shape" d="M482.692,214.069C480.318,230.576 475.122,246.551 467.332,261.297C464.331,267.034 461.153,272.596 457.622,278.069C449.143,291.376 439.763,304.088 429.55,316.116C425.754,320.706 421.87,325.297 417.986,329.71C415.956,332.094 413.837,334.477 411.807,336.861C403.156,346.865 394.211,356.693 384.971,366.345C381.087,370.582 376.938,374.908 372.789,379.057C361.137,391.062 349.131,402.862 336.772,414.455C332.447,418.516 328.121,422.488 323.708,426.461C308.524,440.32 292.988,453.738 277.098,466.714C264.298,455.15 272.331,441.821 256.353,430.345C239.316,417.986 228.988,432.375 211.95,420.017C194.913,407.658 205.153,393.357 188.116,380.999C169.931,368.022 159.514,384.971 140.447,368.199C154.836,357.959 171.255,346.218 188.734,333.418C273.302,271.537 383.559,185.203 420.193,130.472C420.281,130.383 420.37,130.295 420.37,130.207C424.263,125.211 427.359,119.642 429.55,113.699C429.746,113.009 429.982,112.331 430.257,111.669C432.178,107.068 432.965,102.072 432.552,97.103C432.552,44.844 346.394,2.295 238.345,0.088L238.345,-0C268.26,-0.001 298.15,1.768 327.857,5.297C365.55,10.152 402.803,17.832 431.669,44.226C476.16,84.833 490.461,156.337 482.692,214.069Z" style="fill:url(#_Linear6);fill-rule:nonzero;"/>
                <path id="Shape6" serif:id="Shape" d="M277.098,466.714C258.56,481.898 239.757,496.434 220.69,510.323C217.437,512.629 213.055,512.521 209.92,510.058L92.072,415.779C89.899,414.044 88.672,411.386 88.759,408.607C88.845,405.828 90.237,403.252 92.513,401.655C102.4,394.858 119.261,383.206 140.447,368.199C159.514,384.971 169.931,368.022 188.116,380.999C205.153,393.357 194.825,407.658 211.95,420.017C229.076,432.375 239.316,417.986 256.353,430.345C272.331,441.821 264.298,455.15 277.098,466.714Z" style="fill:url(#_Linear7);fill-rule:nonzero;"/>
                <g>
                    <path id="Shape7" serif:id="Shape" d="M256,105.931C251.125,105.931 247.172,101.979 247.172,97.103L247.172,88.276C247.172,83.401 251.125,79.448 256,79.448C260.875,79.448 264.828,83.401 264.828,88.276L264.828,97.103C264.828,101.979 260.875,105.931 256,105.931Z" style="fill:url(#_Linear8);fill-rule:nonzero;"/>
                    <path id="Shape8" serif:id="Shape" d="M203.034,467.862C201.029,467.863 199.083,467.181 197.517,465.929L153.379,430.618C149.572,427.571 148.955,422.015 152.002,418.207C155.049,414.399 160.606,413.783 164.414,416.83L208.552,452.14C211.481,454.482 212.61,458.419 211.368,461.958C210.126,465.496 206.785,467.864 203.034,467.862Z" style="fill:url(#_Linear9);fill-rule:nonzero;"/>
                    <g>
                        <path id="Shape9" serif:id="Shape" d="M79.448,238.345L79.448,303.757C73.337,300.584 67.44,297.016 61.793,293.076L61.793,238.345C61.793,233.469 65.745,229.517 70.621,229.517C75.496,229.517 79.448,233.469 79.448,238.345Z" style="fill:url(#_Linear10);fill-rule:nonzero;"/>
                        <path id="Shape10" serif:id="Shape" d="M132.414,264.828L132.414,323.619C126.323,322.03 120.408,320.265 114.759,318.411L114.759,264.828C114.759,259.952 118.711,256 123.586,256C128.462,256 132.414,259.952 132.414,264.828Z" style="fill:url(#_Linear11);fill-rule:nonzero;"/>
                        <path id="Shape11" serif:id="Shape" d="M194.207,273.655L194.207,329.357C192.353,330.77 190.588,332.094 188.734,333.418C184.585,332.977 180.524,332.535 176.552,332.006L176.552,273.655C176.552,268.78 180.504,264.828 185.379,264.828C190.255,264.828 194.207,268.78 194.207,273.655Z" style="fill:url(#_Linear12);fill-rule:nonzero;"/>
                        <path id="Shape12" serif:id="Shape" d="M336.772,414.455C332.447,418.516 328.121,422.488 323.708,426.461L276.745,386.295C274.348,384.245 273.227,381.072 273.804,377.971C274.381,374.871 276.568,372.313 279.542,371.263C282.515,370.212 285.824,370.827 288.221,372.877L336.772,414.455Z" style="fill:url(#_Linear13);fill-rule:nonzero;"/>
                        <path id="Shape13" serif:id="Shape" d="M384.971,366.345C381.087,370.582 376.938,374.908 372.789,379.057L329.71,342.157C327.313,340.107 326.192,336.934 326.769,333.834C327.346,330.733 329.533,328.175 332.507,327.125C335.481,326.074 338.789,326.689 341.186,328.739L384.971,366.345Z" style="fill:url(#_Linear14);fill-rule:nonzero;"/>
                        <path id="Shape14" serif:id="Shape" d="M429.55,316.116C425.754,320.706 421.87,325.297 417.986,329.71L385.854,292.988C382.889,289.307 383.349,283.945 386.897,280.823C390.445,277.701 395.822,277.927 399.095,281.335L429.55,316.116Z" style="fill:url(#_Linear15);fill-rule:nonzero;"/>
                        <path id="Shape15" serif:id="Shape" d="M467.332,261.297C464.331,267.034 461.153,272.596 457.622,278.069L434.582,245.672C432.412,243.137 431.856,239.595 433.146,236.518C434.436,233.44 437.351,231.353 440.679,231.124C444.008,230.894 447.182,232.561 448.883,235.432L467.332,261.297Z" style="fill:url(#_Linear16);fill-rule:nonzero;"/>
                    </g>
                </g>
            </g>
            <g transform="matrix(1,0,0,1,251.497,889.276)">
                <rect x="508.163" y="236.526" width="228.712" height="228.712" style="fill:none;"/>
            </g>
        </g>
    </g>
    <defs>
        <linearGradient id="_Linear1" x1="0" y1="0" x2="1" y2="0" gradientUnits="userSpaceOnUse" gradientTransform="matrix(320.424,114.162,-114.162,320.424,73.5839,39.2746)"><stop offset="0" style="stop-color:rgb(255,74,74);stop-opacity:1"/><stop offset="1" style="stop-color:rgb(195,0,0);stop-opacity:1"/></linearGradient>
        <linearGradient id="_Linear2" x1="0" y1="0" x2="1" y2="0" gradientUnits="userSpaceOnUse" gradientTransform="matrix(173.54,58.0971,-58.0971,173.54,150.319,59.8524)"><stop offset="0" style="stop-color:rgb(200,0,0);stop-opacity:1"/><stop offset="1" style="stop-color:rgb(42,0,0);stop-opacity:1"/></linearGradient>
        <linearGradient id="_Linear3" x1="0" y1="0" x2="1" y2="0" gradientUnits="userSpaceOnUse" gradientTransform="matrix(173.54,58.0971,-58.0971,173.54,150.319,59.8524)"><stop offset="0" style="stop-color:rgb(200,0,0);stop-opacity:1"/><stop offset="1" style="stop-color:rgb(42,0,0);stop-opacity:1"/></linearGradient>
        <linearGradient id="_Linear4" x1="0" y1="0" x2="1" y2="0" gradientUnits="userSpaceOnUse" gradientTransform="matrix(37.4072,99.3195,-99.3195,37.4072,235.745,37.8733)"><stop offset="0" style="stop-color:rgb(203,114,114);stop-opacity:1"/><stop offset="1" style="stop-color:rgb(158,46,46);stop-opacity:1"/></linearGradient>
        <linearGradient id="_Linear5" x1="0" y1="0" x2="1" y2="0" gradientUnits="userSpaceOnUse" gradientTransform="matrix(307.132,32.4242,-32.4242,307.132,28.9072,190.281)"><stop offset="0" style="stop-color:rgb(235,0,0);stop-opacity:1"/><stop offset="1" style="stop-color:rgb(153,0,0);stop-opacity:1"/></linearGradient>
        <linearGradient id="_Linear6" x1="0" y1="0" x2="1" y2="0" gradientUnits="userSpaceOnUse" gradientTransform="matrix(14.092,444.239,-444.239,14.092,273.214,6.8792)"><stop offset="0" style="stop-color:rgb(255,32,32);stop-opacity:1"/><stop offset="1" style="stop-color:rgb(255,148,148);stop-opacity:1"/></linearGradient>
        <linearGradient id="_Linear7" x1="0" y1="0" x2="1" y2="0" gradientUnits="userSpaceOnUse" gradientTransform="matrix(123.037,101.228,-101.228,123.037,116.532,390.216)"><stop offset="0" style="stop-color:rgb(203,114,114);stop-opacity:1"/><stop offset="1" style="stop-color:rgb(158,46,46);stop-opacity:1"/></linearGradient>
        <linearGradient id="_Linear8" x1="0" y1="0" x2="1" y2="0" gradientUnits="userSpaceOnUse" gradientTransform="matrix(289.363,227.268,-227.268,289.363,106.787,161.261)"><stop offset="0" style="stop-color:rgb(88,0,0);stop-opacity:1"/><stop offset="1" style="stop-color:rgb(111,0,0);stop-opacity:1"/></linearGradient>
        <linearGradient id="_Linear9" x1="0" y1="0" x2="1" y2="0" gradientUnits="userSpaceOnUse" gradientTransform="matrix(289.363,227.268,-227.268,289.363,106.787,161.261)"><stop offset="0" style="stop-color:rgb(88,0,0);stop-opacity:1"/><stop offset="1" style="stop-color:rgb(111,0,0);stop-opacity:1"/></linearGradient>
        <linearGradient id="_Linear10" x1="0" y1="0" x2="1" y2="0" gradientUnits="userSpaceOnUse" gradientTransform="matrix(289.363,227.268,-227.268,289.363,106.787,161.261)"><stop offset="0" style="stop-color:rgb(88,0,0);stop-opacity:1"/><stop offset="1" style="stop-color:rgb(111,0,0);stop-opacity:1"/></linearGradient>
        <linearGradient id="_Linear11" x1="0" y1="0" x2="1" y2="0" gradientUnits="userSpaceOnUse" gradientTransform="matrix(289.363,227.268,-227.268,289.363,106.787,161.261)"><stop offset="0" style="stop-color:rgb(88,0,0);stop-opacity:1"/><stop offset="1" style="stop-color:rgb(111,0,0);stop-opacity:1"/></linearGradient>
        <linearGradient id="_Linear12" x1="0" y1="0" x2="1" y2="0" gradientUnits="userSpaceOnUse" gradientTransform="matrix(289.363,227.268,-227.268,289.363,106.787,161.261)"><stop offset="0" style="stop-color:rgb(88,0,0);stop-opacity:1"/><stop offset="1" style="stop-color:rgb(111,0,0);stop-opacity:1"/></linearGradient>
        <linearGradient id="_Linear13" x1="0" y1="0" x2="1" y2="0" gradientUnits="userSpaceOnUse" gradientTransform="matrix(289.363,227.268,-227.268,289.363,106.787,161.261)"><stop offset="0" style="stop-color:rgb(88,0,0);stop-opacity:1"/><stop offset="1" style="stop-color:rgb(111,0,0);stop-opacity:1"/></linearGradient>
        <linearGradient id="_Linear14" x1="0" y1="0" x2="1" y2="0" gradientUnits="userSpaceOnUse" gradientTransform="matrix(289.363,227.268,-227.268,289.363,106.787,161.261)"><stop offset="0" style="stop-color:rgb(88,0,0);stop-opacity:1"/><stop offset="1" style="stop-color:rgb(111,0,0);stop-opacity:1"/></linearGradient>
        <linearGradient id="_Linear15" x1="0" y1="0" x2="1" y2="0" gradientUnits="userSpaceOnUse" gradientTransform="matrix(289.363,227.268,-227.268,289.363,106.787,161.261)"><stop offset="0" style="stop-color:rgb(88,0,0);stop-opacity:1"/><stop offset="1" style="stop-color:rgb(111,0,0);stop-opacity:1"/></linearGradient>
        <linearGradient id="_Linear16" x1="0" y1="0" x2="1" y2="0" gradientUnits="userSpaceOnUse" gradientTransform="matrix(289.363,227.268,-227.268,289.363,106.787,161.261)"><stop offset="0" style="stop-color:rgb(88,0,0);stop-opacity:1"/><stop offset="1" style="stop-color:rgb(111,0,0);stop-opacity:1"/></linearGradient>
    </defs>
</svg>
